<?xml version="1.0" encoding="UTF-8" standalone="no"?>
<svg
   xmlns:dc="http://purl.org/dc/elements/1.1/"
   xmlns:cc="http://creativecommons.org/ns#"
   xmlns:rdf="http://www.w3.org/1999/02/22-rdf-syntax-ns#"
   xmlns:svg="http://www.w3.org/2000/svg"
   xmlns="http://www.w3.org/2000/svg"
   viewBox="0 0 666.66669 666.66669"
   height="666.66669"
   width="666.66669"
   xml:space="preserve"
   id="svg2"
   version="1.1"><metadata
     id="metadata8"><rdf:RDF><cc:Work
         rdf:about=""><dc:format>image/svg+xml</dc:format><dc:type
           rdf:resource="http://purl.org/dc/dcmitype/StillImage" /></cc:Work></rdf:RDF></metadata><defs
     id="defs6"><clipPath
       id="clipPath26"
       clipPathUnits="userSpaceOnUse"><path
         id="path24"
         d="M 0,500 H 500 V 0 H 0 Z" /></clipPath></defs><g
     transform="matrix(1.3333333,0,0,-1.3333333,0,666.66667)"
     id="g10"><text
       id="text14"
       style="font-variant:normal;font-weight:900;font-stretch:normal;font-size:41.95669937px;font-family:'Poppins Black';-inkscape-font-specification:Poppins-Black;writing-mode:lr-tb;fill:#00aec4;fill-opacity:1;fill-rule:nonzero;stroke:none"
       transform="matrix(1,0,0,-1,102.9424,161.3838)"><tspan
         id="tspan12"
         y="0"
         x="0 32.516441 71.871826 110.59786 144.12126 181.04317 227.23749 266.59286">SOAPYMOP</tspan></text>
<text
       id="text18"
       style="font-variant:normal;font-weight:normal;font-stretch:normal;font-size:13.8987999px;font-family:Poppins;-inkscape-font-specification:Poppins-Regular;writing-mode:lr-tb;fill:#0b6b9c;fill-opacity:1;fill-rule:nonzero;stroke:none"
       transform="matrix(1,0,0,-1,89.6499,139.3496)"><tspan
         id="tspan16"
         y="0"
         x="0 12.383831 26.088047 40.834675 50.744518 57.23526 70.286232 76.77697 90.481186 100.26595 110.0507 116.24957 129.7592 139.66904 146.15977 159.66942 168.45346 178.3633 190.51085 203.06146 209.26033 221.81094 235.40398 241.89471 252.83307 262.74292 273.97314 286.1485 292.34735 305.85699 315.76685">HOME &amp; OFFICE CLEANING SERVICES</tspan></text>
<g
       id="g20"><g
         clip-path="url(#clipPath26)"
         id="g22"><g
           transform="translate(280.758,299.3666)"
           id="g28"><path
             id="path30"
             style="fill:#00aec4;fill-opacity:1;fill-rule:nonzero;stroke:none"
             d="m 0,0 c 2.864,0 5.193,-2.33 5.193,-5.193 0,-2.864 -2.329,-5.194 -5.193,-5.194 -2.863,0 -5.193,2.33 -5.193,5.194 C -5.193,-2.33 -2.863,0 0,0 m 0,-15.273 c 5.558,0 10.079,4.522 10.079,10.08 0,5.558 -4.521,10.079 -10.079,10.079 -5.558,0 -10.079,-4.521 -10.079,-10.079 0,-5.558 4.521,-10.08 10.079,-10.08" /></g><g
           transform="translate(182.768,266.3448)"
           id="g32"><path
             id="path34"
             style="fill:#00aec4;fill-opacity:1;fill-rule:nonzero;stroke:none"
             d="m 0,0 c 2.864,0 5.193,-2.33 5.193,-5.193 0,-2.864 -2.329,-5.194 -5.193,-5.194 -2.864,0 -5.193,2.33 -5.193,5.194 C -5.193,-2.33 -2.864,0 0,0 m 0,-15.273 c 5.558,0 10.079,4.522 10.079,10.08 0,5.558 -4.521,10.079 -10.079,10.079 -5.558,0 -10.079,-4.521 -10.079,-10.079 0,-5.558 4.521,-10.08 10.079,-10.08" /></g><g
           transform="translate(201.2276,299.3666)"
           id="g36"><path
             id="path38"
             style="fill:#00aec4;fill-opacity:1;fill-rule:nonzero;stroke:none"
             d="m 0,0 c 0.957,0 1.735,-0.779 1.735,-1.735 0,-0.957 -0.778,-1.736 -1.735,-1.736 -0.957,0 -1.735,0.779 -1.735,1.736 C -1.735,-0.779 -0.957,0 0,0 m 0,-8.357 c 3.651,0 6.621,2.971 6.621,6.622 0,3.651 -2.97,6.621 -6.621,6.621 -3.651,0 -6.621,-2.97 -6.621,-6.621 0,-3.651 2.97,-6.622 6.621,-6.622" /></g><g
           transform="translate(214.9353,266.0637)"
           id="g40"><path
             id="path42"
             style="fill:#0b6b9c;fill-opacity:1;fill-rule:nonzero;stroke:none"
             d="m 0,0 h 4.32 v -17.798 c 0,-7.55 2.791,-14.619 7.857,-19.903 0.494,-0.514 1.039,-1.041 1.637,-1.569 -19.655,2.331 -22.175,12.015 -22.175,19.536 C -8.361,-8.931 -2.316,-2.188 0,0 M -2.551,13.555 H 8.846 26.648 38.046 V 7.329 H 34.709 34.593 -2.551 Z M 12.511,27.11 H 22.984 V 20.884 H 12.511 Z M 63.636,-2.702 c 10.429,-2.233 17.264,-5.69 19.767,-9.998 3.438,-5.917 10.441,-9.361 20.802,-10.257 -5.985,-1.898 -13.615,-2.293 -21.506,2.622 -14.416,8.98 -26.219,9.533 -32.361,8.947 -0.421,4.341 -1.504,7.997 -3.244,10.934 5.171,-0.379 10.977,-1.057 16.542,-2.248 m -1.861,-31.072 c -6.467,3.672 -10.165,8.737 -11.032,15.079 4.693,0.523 14.943,0.324 28.081,-7.861 5.376,-3.349 11.164,-5.033 17.133,-5.033 4.089,0 8.263,0.79 12.448,2.378 0.201,0.076 0.398,0.154 0.595,0.232 -4.193,-5.438 -10.66,-10.812 -19.847,-10.812 -10.821,0 -20.544,2.137 -27.378,6.017 M 11.649,0 h 1.471 c 0.599,-0.539 1.378,-0.887 2.245,-0.935 0.021,-0.001 2.185,-0.176 4.319,-1.503 2.909,-1.81 4.323,-4.829 4.323,-9.227 0,-9.667 1.644,-17.157 5.026,-22.899 1.107,-1.88 2.395,-3.539 3.843,-4.999 -14.62,1.609 -21.227,11.726 -21.227,21.765 z m 42.003,-39.791 c -15.225,0 -22.316,8.937 -22.316,28.126 0,5.278 -1.489,9.017 -3.545,11.665 h 6.819 0.052 c 0.97,-0.02 8.48,-0.66 8.545,-15.511 -0.01,-0.182 -0.009,-0.365 0.008,-0.549 0.116,-10.057 5.062,-18.243 14.333,-23.731 z m 74.714,0 h -19.537 c 2.152,1.804 4.175,3.929 6.046,6.371 5.02,6.55 7.199,13.073 7.29,13.348 0.007,0.023 0.01,0.046 0.018,0.069 0.031,0.105 0.059,0.21 0.081,0.317 0.011,0.052 0.021,0.104 0.03,0.156 0.014,0.087 0.024,0.174 0.032,0.262 0.005,0.055 0.012,0.109 0.015,0.164 0.006,0.125 0.006,0.251 -10e-4,0.376 -0.003,0.065 -0.013,0.128 -0.019,0.192 -0.008,0.071 -0.016,0.142 -0.028,0.213 -0.012,0.069 -0.026,0.138 -0.042,0.208 -0.014,0.063 -0.031,0.126 -0.049,0.189 -0.02,0.07 -0.04,0.14 -0.064,0.209 -0.019,0.056 -0.044,0.111 -0.066,0.166 -0.056,0.138 -0.121,0.273 -0.194,0.404 -0.022,0.04 -0.043,0.08 -0.066,0.119 -0.048,0.078 -0.1,0.154 -0.154,0.229 -0.024,0.034 -0.049,0.067 -0.074,0.1 -0.036,0.047 -0.066,0.096 -0.104,0.14 -0.027,0.032 -0.058,0.058 -0.085,0.088 -0.004,0.005 -0.008,0.01 -0.012,0.015 -0.014,0.015 -0.029,0.027 -0.043,0.042 -0.226,0.239 -0.479,0.443 -0.754,0.61 -0.029,0.018 -0.057,0.037 -0.087,0.053 -0.082,0.047 -0.166,0.091 -0.252,0.131 -0.031,0.015 -0.063,0.029 -0.095,0.043 -0.3,0.131 -0.616,0.223 -0.943,0.27 -0.006,0.001 -0.012,0.003 -0.018,0.003 -0.103,0.015 -0.206,0.023 -0.309,0.029 -0.027,0.002 -0.055,0.002 -0.082,0.003 -0.101,0.004 -0.203,0.005 -0.305,-10e-4 -0.006,0 -0.013,-10e-4 -0.02,-10e-4 -0.116,-0.007 -0.232,-0.013 -0.349,-0.031 -0.059,-0.009 -5.959,-0.899 -12.629,-0.411 -5.653,0.414 -12.976,1.912 -15.757,6.699 C 82.966,2.64 61.046,6.08 45.375,7.011 V 17.22 c 0,2.023 -1.641,3.664 -3.665,3.664 H 30.313 v 9.891 c 0,2.024 -1.641,3.664 -3.665,3.664 H 21.412 V 86.77 c 0,2.024 -1.641,3.664 -3.665,3.664 -2.024,0 -3.664,-1.64 -3.664,-3.664 V 34.439 H 8.846 c -2.024,0 -3.664,-1.64 -3.664,-3.664 V 20.884 H -6.216 c -2.024,0 -3.664,-1.641 -3.664,-3.664 V 3.664 c 0,-1.022 0.419,-1.946 1.095,-2.611 -3.28,-4.409 -6.905,-11.402 -6.905,-20.787 0,-8.797 3.098,-15.488 9.232,-20.057 h -39.777 c -2.024,0 -3.665,-1.64 -3.665,-3.664 0,-2.024 1.641,-3.665 3.665,-3.665 h 174.601 c 2.023,0 3.664,1.641 3.664,3.665 0,2.024 -1.641,3.664 -3.664,3.664" /></g></g></g></g></svg>